<svg xmlns="http://www.w3.org/2000/svg" viewBox="0 0 256 256" width="256" height="256" role="img"><rect width="256" height="256" fill="#FDE6C2"/><path d="M40 256 Q40 196 96 182 L160 182 Q216 196 216 256 Z" fill="#F4B400"/><circle cx="86" cy="120" r="9" fill="#734A2C"/><circle cx="170" cy="120" r="9" fill="#734A2C"/><rect x="118" y="150" width="20" height="26" rx="8" fill="#734A2C"/><circle cx="128" cy="118" r="52" fill="#734A2C"/><path d="M72 150 L72 104 A56 56 0 0 1 184 104 L184 150 L166 150 L166 108 A40 40 0 0 0 90 108 L90 150 Z" fill="#A9713B"/><path d="M112 182 Q128 200 144 182 L138 182 Q128 192 118 182 Z" fill="#ffffff" opacity="0.18"/><ellipse cx="110" cy="116" rx="4.2" ry="5" fill="#3A2E28"/><ellipse cx="146" cy="116" rx="4.2" ry="5" fill="#3A2E28"/><path d="M112 134 Q128 146 144 134" stroke="#3A2E28" stroke-width="3.4" fill="none" stroke-linecap="round"/><circle cx="98" cy="128" r="7" fill="#F6A6A0" opacity="0.55"/><circle cx="158" cy="128" r="7" fill="#F6A6A0" opacity="0.55"/></svg>