<svg xmlns="http://www.w3.org/2000/svg" viewBox="0 0 256 256" width="256" height="256" role="img"><rect width="256" height="256" fill="#E4D6BF"/><path d="M40 256 Q40 196 96 182 L160 182 Q216 196 216 256 Z" fill="#5B6B5A"/><circle cx="86" cy="120" r="9" fill="#F6D2BE"/><circle cx="170" cy="120" r="9" fill="#F6D2BE"/><rect x="118" y="150" width="20" height="26" rx="8" fill="#F6D2BE"/><circle cx="128" cy="118" r="52" fill="#F6D2BE"/><path d="M70 176 L70 104 A58 58 0 0 1 186 104 L186 176 L168 176 L168 110 A40 40 0 0 0 88 110 L88 176 Z" fill="#B5502F"/><path d="M112 182 Q128 200 144 182 L138 182 Q128 192 118 182 Z" fill="#ffffff" opacity="0.18"/><ellipse cx="110" cy="116" rx="4.2" ry="5" fill="#3A2E28"/><ellipse cx="146" cy="116" rx="4.2" ry="5" fill="#3A2E28"/><path d="M112 134 Q128 146 144 134" stroke="#3A2E28" stroke-width="3.4" fill="none" stroke-linecap="round"/></svg>